<?xml version="1.0" standalone="no"?>
<!DOCTYPE svg PUBLIC "-//W3C//DTD SVG 20010904//EN"
 "http://www.w3.org/TR/2001/REC-SVG-20010904/DTD/svg10.dtd">
<svg version="1.0" xmlns="http://www.w3.org/2000/svg"
 width="1024.000000pt" height="1024.000000pt" viewBox="0 0 1024.000000 1024.000000"
 preserveAspectRatio="xMidYMid meet">
<metadata>
Created by potrace 1.14, written by Peter Selinger 2001-2017
</metadata>
<g transform="translate(0.000000,1024.000000) scale(0.100000,-0.100000)"
fill="#000000" stroke="none">
<path d="M4885 10234 c-1522 -84 -2881 -790 -3812 -1981 -101 -130 -307 -437
-391 -583 -365 -640 -583 -1329 -659 -2084 -23 -233 -23 -697 1 -932 119
-1200 611 -2264 1440 -3111 265 -272 504 -470 816 -677 733 -488 1523 -764
2420 -847 173 -16 665 -16 840 0 892 82 1699 362 2405 834 1111 742 1881 1862
2170 3158 84 375 119 698 119 1104 0 308 -10 455 -50 734 -134 939 -530 1826
-1145 2561 -209 251 -517 547 -784 755 -133 104 -439 309 -588 395 -632 361
-1335 583 -2072 655 -157 15 -572 26 -710 19z m-1515 -2938 c640 -65 1157
-210 1575 -444 215 -120 369 -237 531 -404 310 -320 435 -669 368 -1029 -24
-125 -24 -438 0 -642 36 -318 100 -642 182 -924 117 -405 229 -568 318 -462
44 52 53 99 111 579 73 604 232 1031 506 1357 244 290 788 662 1194 816 522
199 1023 217 1500 56 162 -55 344 -141 319 -150 -197 -72 -274 -119 -384 -235
-88 -92 -140 -168 -214 -314 -128 -250 -178 -406 -411 -1290 -215 -813 -387
-1175 -681 -1432 -303 -265 -723 -410 -1149 -395 -252 8 -334 40 -389 150 -38
75 -44 167 -22 297 100 573 804 1669 1599 2485 104 107 124 132 116 147 -5 10
-12 18 -15 18 -11 0 -204 -125 -311 -202 -866 -621 -1461 -1510 -1664 -2486
-76 -368 -93 -905 -34 -1125 38 -147 146 -325 283 -468 267 -282 618 -434 952
-415 l105 7 -110 -66 c-60 -36 -170 -95 -243 -131 l-133 -66 -107 52 c-363
176 -685 481 -1024 970 -178 257 -306 408 -497 583 -322 298 -720 526 -1133
651 -470 142 -963 170 -1440 80 -81 -15 -88 -18 -88 -39 0 -26 7 -28 155 -40
540 -46 1189 -231 1699 -487 309 -155 528 -307 689 -477 99 -106 140 -185 138
-272 -3 -229 -194 -481 -466 -616 -205 -103 -480 -147 -768 -125 -187 14 -298
33 -493 82 -186 47 -318 96 -452 166 -304 159 -521 353 -930 829 -323 376
-481 536 -664 672 -283 210 -611 313 -963 301 -102 -3 -120 -2 -105 9 39 28
393 205 520 261 524 231 1092 397 1605 471 269 38 384 46 695 45 326 -1 439
-10 691 -60 517 -100 963 -340 1254 -672 153 -174 291 -407 376 -634 24 -65
37 -88 50 -88 10 0 21 4 24 10 15 25 25 425 15 628 -50 1009 -358 1859 -937
2588 -120 151 -451 479 -611 606 -234 186 -508 362 -755 484 -99 50 -119 57
-127 44 -16 -25 -11 -34 46 -73 263 -183 650 -546 913 -857 454 -536 819
-1170 838 -1455 6 -93 5 -95 -76 -119 -70 -20 -239 -21 -352 -1 -475 82 -1129
452 -1510 853 -163 171 -240 292 -587 914 -238 426 -349 615 -463 784 -218
326 -418 538 -594 627 -33 16 -55 31 -50 33 22 6 448 45 585 54 213 13 815 4
1000 -14z"/>
</g>
</svg>
